<?xml version="1.0" encoding="UTF-8" standalone="no"?>
<!-- Created with Inkscape (http://www.inkscape.org/) -->

<svg
   width="112.944mm"
   height="106.302mm"
   viewBox="-2 -1 112.944 106.30198"
   version="1.1"
   id="svg1"
   inkscape:version="1.4.3 (0d15f75042, 2025-12-25)"
   sodipodi:docname="hemanz-trimmed-stroked.svg"
   inkscape:export-filename="hemanzRedo.png"
   inkscape:export-xdpi="200"
   inkscape:export-ydpi="200"
   xmlns:inkscape="http://www.inkscape.org/namespaces/inkscape"
   xmlns:sodipodi="http://sodipodi.sourceforge.net/DTD/sodipodi-0.dtd"
   xmlns:xlink="http://www.w3.org/1999/xlink"
   xmlns="http://www.w3.org/2000/svg"
   xmlns:svg="http://www.w3.org/2000/svg">
  <sodipodi:namedview
     id="namedview1"
     pagecolor="#ffffff"
     bordercolor="#cccccc"
     borderopacity="1"
     inkscape:showpageshadow="0"
     inkscape:pageopacity="1"
     inkscape:pagecheckerboard="0"
     inkscape:deskcolor="#d1d1d1"
     inkscape:document-units="mm"
     showgrid="true"
     inkscape:zoom="2"
     inkscape:cx="293.75"
     inkscape:cy="163.5"
     inkscape:window-width="2560"
     inkscape:window-height="1382"
     inkscape:window-x="0"
     inkscape:window-y="0"
     inkscape:window-maximized="1"
     inkscape:current-layer="layer1"
     inkscape:export-bgcolor="#ffffffff">
    <inkscape:grid
       id="grid1"
       units="mm"
       originx="7.0055881"
       originy="3.5566952"
       spacingx="0.99999998"
       spacingy="1"
       empcolor="#0099e5"
       empopacity="0.30196078"
       color="#0099e5"
       opacity="0.14901961"
       empspacing="5"
       enabled="true"
       visible="true" />
  </sodipodi:namedview>
  <defs
     id="defs1">
    <inkscape:path-effect
       effect="skeletal"
       id="path-effect16"
       is_visible="true"
       lpeversion="1"
       pattern="m 104.37606,38.621891 c -0.26179,-0.215936 -1.13052,-2.223545 3.53518,-6.135026 4.87817,-4.089609 13.41365,-8.110099 13.41365,-8.110099 l 0.21705,0.433565 0.21652,-0.433565 c 0,0 8.53496,4.02049 13.41313,8.110099 4.6657,3.911481 3.7975,5.91909 3.53571,6.135026 -0.17633,0.145434 -12.71028,-7.185534 -17.16588,-9.799401 -4.4556,2.613867 -16.98904,9.944835 -17.16536,9.799401 z"
       copytype="repeated_stretched"
       prop_scale="1"
       scale_y_rel="false"
       spacing="0"
       normal_offset="0"
       tang_offset="0"
       prop_units="false"
       vertical_pattern="true"
       hide_knot="false"
       fuse_tolerance="0" />
    <inkscape:path-effect
       effect="skeletal"
       id="path-effect12"
       is_visible="true"
       lpeversion="1"
       pattern="M 85.162884,26.930386 69.403219,36.029232 V 17.831539 Z"
       copytype="single_stretched"
       prop_scale="0.23"
       scale_y_rel="false"
       spacing="0"
       normal_offset="0"
       tang_offset="0"
       prop_units="false"
       vertical_pattern="false"
       hide_knot="false"
       fuse_tolerance="0" />
    <inkscape:path-effect
       effect="skeletal"
       id="path-effect10"
       is_visible="true"
       lpeversion="1"
       pattern="M 0,0 H 1"
       copytype="single_stretched"
       prop_scale="1"
       scale_y_rel="false"
       spacing="0"
       normal_offset="0"
       tang_offset="0"
       prop_units="false"
       vertical_pattern="false"
       hide_knot="false"
       fuse_tolerance="0" />
    <inkscape:path-effect
       effect="skeletal"
       id="path-effect7"
       is_visible="true"
       lpeversion="1"
       pattern="M 0,0 H 1"
       copytype="single_stretched"
       prop_scale="1"
       scale_y_rel="false"
       spacing="0"
       normal_offset="0"
       tang_offset="0"
       prop_units="false"
       vertical_pattern="false"
       hide_knot="false"
       fuse_tolerance="0" />
    <pattern
       inkscape:collect="always"
       xlink:href="#pattern14"
       preserveAspectRatio="xMidYMid"
       id="pattern16"
       patternTransform="translate(-7.4999999e-6)" />
    <pattern
       inkscape:collect="always"
       xlink:href="#pattern11"
       preserveAspectRatio="xMidYMid"
       id="pattern13"
       patternTransform="translate(-4.078494e-7)" />
    <pattern
       inkscape:collect="always"
       xlink:href="#pattern10"
       preserveAspectRatio="xMidYMid"
       id="pattern12"
       patternTransform="translate(-7.4999999e-6)" />
    <inkscape:path-effect
       effect="mirror_symmetry"
       start_point="296.85449,163.39648"
       end_point="296.85449,190.07422"
       center_point="296.85449,176.73535"
       id="path-effect9"
       is_visible="true"
       lpeversion="1.2"
       lpesatellites=""
       mode="free"
       discard_orig_path="false"
       fuse_paths="false"
       oposite_fuse="false"
       split_items="false"
       split_open="false"
       link_styles="false" />
    <pattern
       patternUnits="userSpaceOnUse"
       width="75.174807"
       height="26.677735"
       patternTransform="translate(221.67969,163.39648)"
       preserveAspectRatio="xMidYMid"
       id="pattern9">
      <path
         id="path9"
         style="fill-opacity:1;stroke:none;stroke-width:40.0932;stroke-dasharray:none;stroke-opacity:1"
         d="M 37.587405,0 A 45.056523,29.73371 0 0 0 0,13.337892 45.056523,29.73371 0 0 0 37.587405,26.677735 45.056523,29.73371 0 0 0 75.174807,13.337892 45.056523,29.73371 0 0 0 37.587405,0 Z" />
    </pattern>
    <pattern
       patternUnits="userSpaceOnUse"
       width="150.3496"
       height="26.677734"
       patternTransform="translate(221.67968,163.39648)"
       preserveAspectRatio="xMidYMid"
       id="pattern10">
      <g
         id="g9"
         transform="matrix(3.7795276,0,0,3.7795276,-221.67968,-163.39648)">
        <path
           style="fill:url(#pattern9);stroke:none"
           transform="scale(0.26458333)"
           width="75.174805"
           height="26.677734"
           x="221.67969"
           y="163.39648"
           id="rect9"
           inkscape:path-effect="#path-effect9"
           sodipodi:type="rect"
           d="m 221.67969,163.39648 h 75.1748 v 26.67774 h -75.1748 z m 150.3496,0 h -75.1748 v 26.67774 h 75.1748 z" />
      </g>
    </pattern>
    <pattern
       patternUnits="userSpaceOnUse"
       width="150.34959"
       height="26.677734"
       patternTransform="translate(221.67968,163.39648)"
       preserveAspectRatio="xMidYMid"
       id="pattern11">
      <rect
         style="fill:url(#pattern12);stroke:none"
         width="150.34959"
         height="26.677734"
         x="0"
         y="0"
         id="rect10" />
    </pattern>
    <pattern
       patternUnits="userSpaceOnUse"
       width="150.34959"
       height="26.677733"
       patternTransform="translate(221.67968,151.60682)"
       preserveAspectRatio="xMidYMid"
       id="pattern14">
      <rect
         style="fill:url(#pattern13);stroke:none;stroke-width:0.999999"
         width="150.34959"
         height="26.677732"
         x="0"
         y="0"
         id="rect12" />
    </pattern>
    <pattern
       patternUnits="userSpaceOnUse"
       width="150.34959"
       height="26.677732"
       patternTransform="translate(221.67968,151.60682)"
       preserveAspectRatio="xMidYMid"
       id="pattern15">
      <rect
         style="fill:url(#pattern16);stroke:none"
         width="150.34959"
         height="26.677732"
         x="0"
         y="0"
         id="rect14" />
    </pattern>
  </defs>
  <g
     inkscape:label="Layer 1"
     inkscape:groupmode="layer"
     id="layer1"
     transform="translate(7.0055879,3.5566962)">
    <path
       d="m 52.433039,-3.1914049 c -3.410633,0.2650787 -6.043005,3.10994903 -6.043042,6.5308676 -8.7e-5,1.8938792 0.819494,3.6951109 2.247408,4.9392334 -0.707867,3.4178899 -3.232298,16.6500749 -3.185335,31.3303869 0.02508,7.840903 1.047458,19.485565 1.306897,22.319052 -6.276841,6e-4 -12.42018,0.07919 -20.483504,0.07183 1.485799,-0.822294 2.934502,-1.706852 4.175455,-2.61121 2.473663,-1.802707 3.465722,-3.151507 3.804936,-4.111377 0.169607,-0.479935 0.173145,-0.863317 0.111104,-1.144633 -0.06204,-0.281315 -0.180148,-0.454827 -0.271301,-0.541053 -7.89e-4,-7.46e-4 -0.04205,-0.02962 -0.05839,-0.03514 -0.01634,-0.0055 -0.02873,-0.0069 -0.03927,-0.0078 -0.0053,-4.75e-4 -0.0099,-9.9e-4 -0.01447,-10e-4 -0.0045,-7.6e-5 -0.0089,2.54e-4 -0.01292,5.16e-4 -0.008,5.25e-4 -0.0148,0.0017 -0.02119,0.0026 -0.02556,0.0033 -0.04544,0.0084 -0.07028,0.0155 -0.04969,0.01429 -0.110741,0.03705 -0.187585,0.06666 -0.153688,0.05921 -0.369784,0.148793 -0.638721,0.267167 -0.537872,0.236748 -1.291672,0.583767 -2.191598,1.00614 -1.799851,0.844745 -4.179216,1.989172 -6.552571,3.138826 -2.467117,1.195072 -4.92738,2.396771 -6.721554,3.275253 0.07247,-0.03556 0.146079,-0.07202 0.220659,-0.108521 -0.309336,-0.584506 -0.596486,-1.1836 -0.866614,-1.793689 l 0.174149,-0.06666 -0.01499,-0.0072 c 2.564083,-1.003282 6.279648,-2.537891 9.921358,-4.328935 2.2805,-1.121581 3.468062,-2.366588 4.060218,-3.372921 0.296078,-0.503167 0.44362,-0.946625 0.503845,-1.285192 0.03011,-0.169284 0.03983,-0.311211 0.03359,-0.425814 -0.0062,-0.114604 -0.01474,-0.194698 -0.07855,-0.276986 -4.68e-4,-6.04e-4 -0.04002,-0.03674 -0.04082,-0.03721 -7.96e-4,-4.7e-4 -0.02366,-0.01111 -0.03307,-0.01395 -0.01883,-0.0057 -0.03185,-0.0073 -0.04289,-0.0078 -0.0055,-2.39e-4 -0.01034,-1.55e-4 -0.01499,0 -0.01395,4.66e-4 -0.025,0.0023 -0.03772,0.0041 -0.03395,0.0049 -0.07289,0.01321 -0.119373,0.02532 -0.09295,0.02422 -0.219779,0.06269 -0.380855,0.115238 -0.322154,0.1051 -0.778597,0.264614 -1.337903,0.466638 -1.118612,0.404048 -2.649411,0.977258 -4.332035,1.615405 -3.298331,1.250913 -7.178728,2.752475 -9.677446,3.722771 -0.164294,-0.561621 -0.31582,-1.130868 -0.453719,-1.703772 2.819165,-0.636272 7.033717,-1.730391 10.150802,-3.181202 2.444708,-1.13786 3.635167,-2.201317 4.195093,-3.029272 0.279962,-0.413977 0.400732,-0.768289 0.439766,-1.04283 0.03903,-0.274542 0.0105,-0.454821 -0.0646,-0.572575 -3.84e-4,-6.02e-4 -0.03444,-0.03618 -0.03514,-0.03669 -6.95e-4,-5.12e-4 -0.02095,-0.01399 -0.02946,-0.01757 -0.01701,-0.0072 -0.02847,-0.0082 -0.03876,-0.0098 -0.01029,-0.0016 -0.01926,-0.0024 -0.02739,-0.0026 -0.0081,-1.75e-4 -0.01579,2.67e-4 -0.02377,5.17e-4 -0.03192,0.0012 -0.06739,0.0053 -0.111104,0.01189 -0.08743,0.01317 -0.207037,0.03566 -0.359152,0.06821 -0.30423,0.06511 -0.735133,0.16729 -1.266072,0.29869 -1.061879,0.262801 -2.519916,0.641793 -4.132565,1.068669 -3.157058,0.83569 -6.908195,1.854288 -9.435599,2.545064 v 5.17e-4 5.17e-4 c -0.0059,0.0017 -0.01167,0.0031 -0.01757,0.0047 -0.03867,0.01057 -0.106614,0.02835 -0.144694,0.03876 0.05347,-0.01462 0.107635,-0.02951 0.162264,-0.04444 -0.08114,-0.569783 -0.151835,-1.140617 -0.21239,-1.71359 -0.04805,0.0068 -0.09586,0.01356 -0.143144,0.02015 0.0056,-8e-4 0.01404,-0.0028 0.01964,-0.0036 0.0286,-0.004 0.07085,-0.01295 0.09973,-0.01705 0.0078,-0.0011 0.01546,-0.002 0.02326,-0.0031 1.34e-4,0.0013 3.82e-4,0.0023 5.17e-4,0.0036 2.612271,-0.36915 6.347038,-1.034908 9.259383,-2.11305 2.388546,-0.884233 3.689522,-1.819784 4.380611,-2.579687 0.345544,-0.379951 0.539058,-0.717084 0.63717,-0.980819 0.04906,-0.131867 0.07335,-0.244863 0.08165,-0.339514 0.0083,-0.09465 0.0071,-0.166101 -0.03101,-0.238228 -3.06e-4,-5.78e-4 -0.02886,-0.03669 -0.02946,-0.03721 -5.88e-4,-5.21e-4 -0.01973,-0.01554 -0.02739,-0.01964 -0.01533,-0.0082 -0.02562,-0.0116 -0.03514,-0.01395 -0.01903,-0.0047 -0.03242,-0.0049 -0.04703,-0.0057 -0.02922,-0.0015 -0.06172,-5.26e-4 -0.101286,0.0021 -0.07913,0.005 -0.186616,0.01759 -0.324528,0.03514 -0.275822,0.03508 -0.667718,0.09372 -1.152385,0.171566 -0.969334,0.155682 -2.307851,0.386681 -3.804419,0.652674 -2.993135,0.531985 -6.622487,1.201794 -9.20719,1.683618 0.05648,-0.01053 0.113595,-0.02134 0.171049,-0.03204 -0.0091,-0.46436 -0.01131,-0.929326 -0.0062,-1.393713 2.455093,-0.326297 6.103335,-0.932613 8.915218,-1.931665 2.22598,-0.79087 3.42389,-1.560162 4.058667,-2.174028 0.317388,-0.306932 0.493867,-0.575911 0.583944,-0.791166 0.09008,-0.215256 0.106627,-0.368104 0.05064,-0.488342 -2.57e-4,-5.53e-4 -0.0248,-0.03463 -0.02532,-0.03514 -5.19e-4,-5.04e-4 -0.01604,-0.0149 -0.02325,-0.01912 -0.01442,-0.0084 -0.02614,-0.01145 -0.03514,-0.01395 -0.01799,-0.005 -0.02929,-0.0068 -0.04289,-0.0078 -0.02719,-0.002 -0.05752,-0.0017 -0.09405,0 -0.07306,0.0033 -0.173385,0.01331 -0.300757,0.02739 -0.254744,0.02816 -0.615869,0.07576 -1.064018,0.14056 -0.896297,0.129604 -2.134822,0.324429 -3.519682,0.548804 -2.700229,0.437489 -5.959846,0.98847 -8.339542,1.394747 v 5.16e-4 c -0.01117,0.0019 -0.02245,0.0038 -0.03359,0.0057 -0.0235,0.004 -0.05415,0.0091 -0.08372,0.01395 0.03892,-0.0066 0.07788,-0.01342 0.117306,-0.02015 0.03443,-0.388207 0.0747,-0.776391 0.119889,-1.163237 -0.03885,0.0051 -0.0776,0.01001 -0.115755,0.01499 0.02287,-0.0034 0.0531,-0.0087 0.07338,-0.01137 0.01414,-0.0019 0.02813,-0.0038 0.04237,-0.0057 v 5.17e-4 5.17e-4 5.16e-4 5.17e-4 c 2.2584,-0.298524 5.732953,-0.847704 8.45013,-1.688269 2.100012,-0.649642 3.247831,-1.287187 3.866948,-1.802991 0.309558,-0.257902 0.487069,-0.487353 0.582393,-0.67386 0.09532,-0.186508 0.117344,-0.325303 0.0739,-0.437183 -2.12e-4,-5.46e-4 -0.02074,-0.03462 -0.02119,-0.03514 -4.59e-4,-5.12e-4 -0.01511,-0.01517 -0.0217,-0.01964 -0.01318,-0.0089 -0.02256,-0.01258 -0.03101,-0.0155 -0.01691,-0.0058 -0.02854,-0.0067 -0.04134,-0.0083 -0.02559,-0.0033 -0.05356,-0.0055 -0.08785,-0.0057 -0.06857,-3.23e-4 -0.161495,0.0045 -0.28112,0.01189 -0.23925,0.01488 -0.581356,0.04499 -1.002006,0.08578 -0.8413,0.08158 -2.001735,0.209275 -3.294889,0.357601 -2.509541,0.287845 -5.519798,0.654387 -7.665166,0.919324 0.0734,-0.363063 0.151531,-0.725044 0.235645,-1.085722 1.493435,-0.07543 3.96773,-0.288083 7.331852,-0.869198 1.871627,-0.323302 3.057807,-0.834552 3.77548,-1.298629 0.358837,-0.232038 0.600481,-0.451917 0.751892,-0.633036 0.07571,-0.09056 0.129354,-0.171619 0.163815,-0.241846 0.03446,-0.07023 0.05651,-0.124558 0.04289,-0.195337 -1.06e-4,-5.51e-4 -0.0131,-0.03667 -0.01344,-0.03721 -3.39e-4,-5.38e-4 -0.01188,-0.01439 -0.01757,-0.01964 -0.01137,-0.0105 -0.0217,-0.01586 -0.02945,-0.01964 -0.01548,-0.0076 -0.02497,-0.01069 -0.03669,-0.01344 -0.02344,-0.0055 -0.04858,-0.0088 -0.0801,-0.01188 -0.06304,-0.0062 -0.151207,-0.01047 -0.261999,-0.01344 -0.221585,-0.0059 -0.537594,-0.0058 -0.927592,-0.0021 -0.779995,0.0075 -1.853231,0.03138 -3.039091,0.0646 -2.28766,0.06409 -4.991903,0.159716 -6.802169,0.226859 0.08298,-0.253545 0.168611,-0.506612 0.257348,-0.758093 0.02242,-0.06438 0.04533,-0.128157 0.06821,-0.192237 -0.04177,-3.36e-4 -0.08132,-6.92e-4 -0.119372,-10e-4 0.01626,-2.51e-4 0.04584,-0.0011 0.05323,-0.001 0.02158,1.96e-4 0.04394,3.25e-4 0.06666,5.17e-4 -2.04e-4,5.72e-4 -3.13e-4,9.79e-4 -5.17e-4,0.0015 1.094265,0.0088 3.465968,0.01028 7.050733,-0.10852 1.656644,-0.0549 2.686744,-0.365889 3.306775,-0.695565 0.310016,-0.164839 0.517961,-0.334099 0.650089,-0.480074 0.06606,-0.07299 0.11282,-0.140581 0.144694,-0.199471 0.03187,-0.05889 0.04985,-0.105674 0.05064,-0.15813 9e-6,-5.79e-4 -0.0054,-0.03454 -0.0057,-0.03514 -2.31e-4,-5.94e-4 -0.01348,-0.02264 -0.01395,-0.02325 -4.68e-4,-6.08e-4 -0.0094,-0.01034 -0.01344,-0.01395 -0.0041,-0.0036 -0.0063,-0.0074 -0.0098,-0.0098 -0.01394,-0.0095 -0.0261,-0.01343 -0.03721,-0.01757 -0.02221,-0.0083 -0.0449,-0.01434 -0.07597,-0.02119 -0.06215,-0.01371 -0.149204,-0.02737 -0.259932,-0.04341 -0.221458,-0.03208 -0.53828,-0.06965 -0.925525,-0.111104 -0.774488,-0.08291 -1.831024,-0.181499 -2.96106,-0.28112 -2.260073,-0.199242 -4.81439,-0.403227 -5.993949,-0.496094 l 0.0801,0.0057 v 5.16e-4 c 0.03591,0.0028 0.07298,0.0058 0.111105,0.0088 0.115942,-0.249739 0.235329,-0.498567 0.357601,-0.74569 -0.03962,-0.0041 -0.07806,-0.0085 -0.115756,-0.0124 0.01496,0.001 0.03515,0.0021 0.04444,0.0031 0.02367,0.0024 0.04796,0.0047 0.07235,0.0072 -3.37e-4,6.81e-4 -6.96e-4,0.0014 -0.001,0.0021 1.31726,0.13539 3.671918,0.349538 5.851322,0.406176 1.639391,0.04261 2.668967,-0.223017 3.294889,-0.531233 0.31296,-0.154108 0.5244,-0.318739 0.660425,-0.460954 0.06801,-0.07111 0.116798,-0.13635 0.150379,-0.19327 0.03358,-0.05692 0.05289,-0.103095 0.05633,-0.152446 3.7e-5,-5.22e-4 -0.0019,-0.02839 -0.0021,-0.02894 -1.58e-4,-5.47e-4 -0.0089,-0.02113 -0.0093,-0.0217 -3.5e-4,-5.72e-4 -0.0086,-0.0098 -0.01188,-0.01344 -0.0034,-0.0037 -0.0048,-0.0073 -0.0078,-0.0098 -0.01187,-0.01005 -0.02209,-0.01509 -0.03152,-0.01964 -0.01886,-0.0091 -0.03865,-0.01543 -0.06408,-0.02325 -0.05087,-0.01564 -0.12117,-0.03328 -0.211357,-0.05323 -0.180375,-0.03991 -0.4397,-0.08948 -0.757576,-0.146244 -0.635751,-0.11353 -1.507562,-0.254713 -2.457215,-0.40411 -1.803199,-0.283674 -3.883128,-0.59391 -5.136637,-0.778247 l -5.17e-4,5.17e-4 c -0.02496,-0.0037 -0.04961,-0.0073 -0.0739,-0.01085 -0.01243,-0.0018 -0.03381,-0.0052 -0.05374,-0.0083 0.04219,0.0062 0.08387,0.01209 0.128158,0.0186 0.160634,-0.26922 0.32505,-0.535698 0.492476,-0.802018 l 0.01912,0.0062 0.02842,-0.07028 c 1.143349,0.262777 2.85507,0.589354 4.778519,0.735872 1.37304,0.10459 2.329099,-0.09541 2.947107,-0.349332 0.309004,-0.12696 0.532546,-0.267578 0.683679,-0.390674 0.07557,-0.06155 0.132814,-0.117339 0.173633,-0.167949 0.04082,-0.05061 0.06896,-0.08969 0.07648,-0.142627 6.3e-5,-4.44e-4 -0.002,-0.02485 -0.0021,-0.02532 -8.5e-5,-4.7e-4 -0.0054,-0.02121 -0.0057,-0.0217 -2.32e-4,-4.97e-4 -0.0056,-0.0097 -0.0083,-0.01344 -0.0027,-0.0038 -0.0053,-0.0071 -0.0078,-0.0098 -0.01012,-0.01059 -0.01748,-0.01499 -0.02532,-0.01964 -0.01569,-0.0093 -0.03298,-0.01566 -0.05271,-0.02325 -0.03946,-0.01517 -0.09301,-0.03301 -0.162264,-0.05271 -0.13849,-0.03941 -0.336512,-0.08847 -0.583944,-0.146761 -0.494865,-0.116589 -1.182584,-0.266623 -1.952852,-0.429431 -1.465732,-0.309803 -3.231511,-0.666201 -4.533057,-0.926042 l -5.17e-4,5.17e-4 c -0.02671,-0.0053 -0.05326,-0.01072 -0.07958,-0.01602 -0.02104,-0.0042 -0.04937,-0.01052 -0.07545,-0.01602 0.05107,0.01026 0.102853,0.021 0.155546,0.03152 0.170496,-0.238564 0.34394,-0.475892 0.519348,-0.711584 -0.04453,-0.01163 -0.08823,-0.02333 -0.130741,-0.03462 0.01058,0.0028 0.03631,0.0065 0.04702,0.0093 0.02808,0.0074 0.05636,0.01514 0.08527,0.02274 l -5.16e-4,5.17e-4 -5.17e-4,5.16e-4 v 5.17e-4 5.17e-4 h -5.17e-4 v 5.17e-4 c 1.010018,0.263806 2.533375,0.611369 4.339787,0.856278 1.181441,0.160177 1.987638,0.0156 2.50579,-0.195337 0.259076,-0.105467 0.447346,-0.228305 0.572575,-0.337964 0.06261,-0.05483 0.108897,-0.106344 0.142627,-0.152445 0.03373,-0.0461 0.05587,-0.08249 0.06253,-0.126607 1.23e-4,-8.2e-4 -0.0037,-0.03834 -0.0041,-0.03927 -1.85e-4,-4.68e-4 -0.0057,-0.0085 -0.0078,-0.01189 -0.0022,-0.0035 -0.0041,-0.0072 -0.0062,-0.0098 -0.0083,-0.01008 -0.01447,-0.01443 -0.02119,-0.01912 -0.01345,-0.0094 -0.02622,-0.01605 -0.04289,-0.02377 -0.03334,-0.01543 -0.07887,-0.03235 -0.136943,-0.05271 -0.116166,-0.04073 -0.283904,-0.09244 -0.491959,-0.153996 -0.415898,-0.1231 -0.994341,-0.283596 -1.648267,-0.459386 -1.238175,-0.332848 -2.74339,-0.722709 -3.901571,-1.019059 l -5.17e-4,5.16e-4 c -0.02898,-0.0074 -0.05776,-0.01492 -0.0863,-0.02222 l -0.0646,-0.01705 c 0.04979,0.01271 0.100244,0.02567 0.151412,0.03876 0.20031,-0.245045 0.403193,-0.489029 0.608232,-0.730705 -0.04047,-0.01463 -0.08015,-0.02954 -0.119373,-0.04392 0.01061,0.0034 0.02303,0.0071 0.03204,0.01033 0.02916,0.01063 0.05854,0.02125 0.08837,0.03204 l -5.17e-4,5.16e-4 v 5.17e-4 l -5.16e-4,5.17e-4 c 1.116843,0.403834 2.695845,0.912922 3.969266,1.087789 1.061139,0.145726 1.670317,0.0554 2.027267,-0.101286 0.35695,-0.156685 0.455925,-0.383444 0.480074,-0.476974 1.8e-4,-6.96e-4 2.05e-4,-0.03223 0,-0.03307 -2.04e-4,-8.42e-4 -0.0049,-0.01475 -0.0078,-0.01964 -0.0058,-0.0098 -0.01034,-0.01419 -0.0155,-0.01912 -0.01031,-0.0099 -0.02233,-0.01743 -0.03514,-0.02584 -0.02561,-0.01682 -0.05862,-0.03717 -0.103352,-0.06046 -0.08947,-0.04658 -0.219198,-0.107728 -0.380856,-0.181385 -0.323317,-0.147313 -0.776998,-0.344076 -1.292944,-0.562756 -0.974749,-0.413141 -2.172839,-0.905506 -3.142961,-1.301729 0.16215,-0.176498 0.325,-0.352535 0.489376,-0.5271 0.662562,0.319796 2.121773,0.982445 3.499011,1.317232 0.790676,0.192202 1.264954,0.206914 1.552877,0.152446 0.287924,-0.05447 0.392814,-0.183681 0.413928,-0.28112 1.54e-4,-7.14e-4 2.1e-4,-0.02493 0,-0.02584 -2.1e-4,-9.09e-4 -0.0036,-0.0096 -0.0057,-0.01344 -0.0041,-0.0078 -0.0077,-0.01272 -0.01189,-0.01757 -0.0084,-0.0097 -0.01771,-0.01966 -0.02945,-0.02946 -0.02347,-0.01959 -0.05526,-0.04358 -0.09715,-0.07235 -0.08377,-0.05753 -0.204552,-0.134313 -0.353983,-0.226342 -0.298862,-0.184057 -0.71408,-0.426534 -1.169955,-0.691431 -0.84747,-0.492443 -1.839837,-1.056282 -2.512508,-1.436088 0.207413,-0.208109 0.416859,-0.415774 0.626835,-0.621151 -0.02952,-0.02026 -0.05854,-0.04036 -0.08682,-0.05994 -0.01002,-0.0069 -0.0196,-0.01381 -0.02946,-0.02067 0.613222,0.426073 1.536225,1.026245 2.545064,1.53634 0.655465,0.331419 1.167114,0.434789 1.525489,0.4377 0.179188,0.0015 0.319812,-0.02243 0.421679,-0.05478 0.05093,-0.01617 0.09296,-0.03516 0.125057,-0.05478 0.0321,-0.01962 0.0559,-0.03828 0.07028,-0.06666 2.66e-4,-5.24e-4 0.0062,-0.02251 0.0062,-0.02325 1e-6,-7.34e-4 -8.99e-4,-0.0096 -0.0021,-0.01344 -0.0022,-0.0078 -0.0051,-0.01281 -0.0078,-0.01757 -0.0055,-0.0095 -0.01369,-0.01775 -0.0217,-0.02739 -0.01603,-0.01928 -0.03655,-0.04302 -0.06615,-0.07235 -0.0592,-0.05866 -0.146818,-0.139133 -0.255798,-0.236678 -0.21796,-0.19509 -0.524136,-0.460947 -0.873332,-0.757576 -0.656722,-0.557862 -1.463377,-1.228335 -2.105815,-1.7601 l -5.16e-4,5.17e-4 c -0.02685,-0.02223 -0.05333,-0.04442 -0.07958,-0.06615 -0.0135,-0.01117 -0.02698,-0.02256 -0.04031,-0.03359 l 0.04082,0.03307 -5.17e-4,5.16e-4 c 0.02623,0.02171 0.05327,0.04342 0.0801,0.06563 0.10651,-0.09919 0.214022,-0.197926 0.320911,-0.296622 0.113092,-0.104705 0.228395,-0.206702 0.345199,-0.307992 -0.03479,-0.03855 -0.06801,-0.07586 -0.09922,-0.111621 0.0072,0.0082 0.02154,0.02106 0.02894,0.02946 0.023,0.02616 0.04703,0.05307 0.07183,0.08062 -5.84e-4,5.06e-4 -9.66e-4,0.001 -0.0015,0.0015 0.380519,0.421669 0.974093,1.000712 1.764233,1.536857 0.548411,0.37212 1.070407,0.523815 1.46451,0.569991 0.197052,0.02309 0.36082,0.01989 0.482658,0.0041 0.06092,-0.0079 0.111555,-0.01858 0.150378,-0.03152 0.03882,-0.01294 0.06754,-0.02288 0.08785,-0.05271 3.26e-4,-4.78e-4 0.0077,-0.02048 0.0078,-0.02119 8.7e-5,-7.17e-4 5.79e-4,-0.01018 0,-0.01395 -0.0012,-0.0074 -0.0036,-0.0107 -0.0057,-0.0155 -0.0041,-0.0096 -0.0093,-0.01916 -0.01602,-0.02946 -0.0134,-0.0206 -0.0328,-0.04586 -0.05839,-0.07803 -0.05118,-0.06433 -0.126078,-0.154137 -0.220658,-0.261483 -0.189161,-0.214692 -0.45612,-0.503837 -0.751892,-0.822689 -0.547319,-0.590028 -1.197372,-1.27865 -1.660881,-1.7663 0.216241,-0.156622 0.436228,-0.309207 0.658875,-0.45992 l 0.08992,-0.06511 10e-4,-10e-4 c 0.0042,0.0052 0.0085,0.01065 0.01292,0.01602 0.303558,0.370812 1.013044,1.171359 1.960604,1.792138 0.498537,0.326609 0.880621,0.410088 1.148251,0.398425 0.133815,-0.0058 0.238554,-0.03549 0.314709,-0.07028 0.07616,-0.0348 0.12335,-0.0718 0.146244,-0.10542 3.22e-4,-4.73e-4 0.0056,-0.01685 0.0057,-0.01757 8.5e-5,-7.21e-4 5.22e-4,-0.0085 0,-0.01189 -0.001,-0.0068 -0.0017,-0.01297 -0.0036,-0.01757 -0.0039,-0.0092 -0.009,-0.01701 -0.0155,-0.02739 -0.01306,-0.02077 -0.03379,-0.04679 -0.05891,-0.07958 C 34.511987,12.544069 34.43958,12.45403 34.34778,12.345572 34.164239,12.128715 33.908661,11.837776 33.632636,11.527593 33.1371,10.970733 32.574374,10.35055 32.234272,9.9773004 h -5.17e-4 c -0.01808,-0.019845 -0.03543,-0.038984 -0.05219,-0.057361 0.01757,0.01926 0.03377,0.036569 0.05271,0.057361 0.237044,-0.1466064 0.475496,-0.2918731 0.715202,-0.4361491 0.01836,-0.011032 0.03639,-0.022161 0.05529,-0.03359 -0.01213,-0.014537 -0.024,-0.029149 -0.03566,-0.043408 -0.01251,-0.015216 -0.02467,-0.030111 -0.03669,-0.044958 l -10e-4,5.168e-4 -0.01395,-0.01912 c -0.0014,-0.00171 -0.0028,-0.00346 -0.0041,-0.00517 0.346675,0.4316344 0.907953,1.0352389 1.639177,1.4872469 0.505553,0.312508 0.916062,0.449008 1.209228,0.496094 0.146583,0.02354 0.26325,0.02493 0.34985,0.01395 0.0433,-0.0055 0.07849,-0.01434 0.10697,-0.02532 0.02848,-0.01099 0.05151,-0.02273 0.06666,-0.04496 2.7e-4,-3.97e-4 0.0056,-0.01543 0.0057,-0.01602 1.01e-4,-5.85e-4 2.66e-4,-0.0082 0,-0.01137 -5.33e-4,-0.0063 -5.7e-4,-0.0119 -0.0021,-0.01602 -0.0028,-0.0082 -0.0066,-0.01482 -0.01137,-0.02326 -0.0094,-0.01688 -0.02335,-0.03876 -0.04134,-0.0646 -0.03598,-0.05168 -0.08858,-0.122231 -0.156063,-0.208773 C 35.94515,10.80932 35.753282,10.574565 35.53541,10.310596 35.135724,9.8264164 34.646584,9.2454009 34.252754,8.780991 h -5.17e-4 c -0.025,-0.029479 -0.0497,-0.058316 -0.0739,-0.086816 0.02441,0.028746 0.04921,0.057093 0.07441,0.086816 0.258878,-0.1470681 0.518846,-0.2934126 0.779797,-0.4371826 -0.03155,-0.046839 -0.05608,-0.086045 -0.07596,-0.1193726 0.0042,0.0063 0.0099,0.014181 0.01292,0.01912 0.01751,0.028843 0.03884,0.062025 0.06408,0.099736 -3.84e-4,2.116e-4 -6.49e-4,3.051e-4 -10e-4,5.168e-4 0.186939,0.2775517 0.593609,0.7849619 1.397331,1.4335042 0.401207,0.3237432 0.802279,0.4075232 1.111043,0.4004922 0.154382,-0.0035 0.285934,-0.03104 0.382922,-0.06046 0.04849,-0.01471 0.08895,-0.02853 0.119373,-0.04289 0.03042,-0.01436 0.04932,-0.02528 0.06408,-0.04134 3.23e-4,-3.51e-4 0.0077,-0.01494 0.0078,-0.0155 6.1e-5,-2.79e-4 -1.1e-5,-0.0075 0,-0.0078 1.1e-5,-3.31e-4 1.59e-4,-0.0025 0,-0.0041 -6.32e-4,-0.00627 -0.002,-0.011558 -0.0036,-0.015503 -0.0032,-0.00789 -0.0065,-0.014666 -0.01189,-0.023254 C 38.088883,9.94978 38.073573,9.927462 38.052623,9.900295 38.010538,9.845974 37.94824,9.7719111 37.871137,9.6817112 37.716936,9.5013058 37.503389,9.2597231 37.271691,9.0021661 36.810761,8.4897928 36.280824,7.9139848 36.023705,7.6353245 c 0.0075,0.00809 0.01532,0.016197 0.02325,0.024805 0.02571,0.027872 0.05362,0.058281 0.08372,0.09095 0.253078,-0.1342559 0.507289,-0.2675836 0.761711,-0.3994588 l 0.06615,0.00155 c 0.25003,0.2498887 0.679066,0.6355303 1.358056,1.12913 0.40724,0.2960479 0.77685,0.3942022 1.054199,0.4082438 0.138674,0.00702 0.254889,-0.00798 0.340031,-0.027388 0.04257,-0.0097 0.07629,-0.019963 0.103353,-0.031006 0.02707,-0.011043 0.0469,-0.018964 0.06098,-0.033073 3.06e-4,-3.065e-4 0.0077,-0.015541 0.0078,-0.01602 1.26e-4,-4.786e-4 5.4e-5,-0.01072 0,-0.011369 -4.7e-5,-5.674e-4 2.89e-4,-0.00531 0,-0.00775 -6.23e-4,-0.00222 -0.0013,-0.00437 -0.0021,-0.0062 -0.003,-0.00732 -0.007,-0.013837 -0.01189,-0.021187 -0.0098,-0.014701 -0.02403,-0.031985 -0.04289,-0.054777 -0.03766,-0.0456 -0.09383,-0.1096385 -0.163814,-0.1855184 C 39.522276,8.3444939 39.324937,8.141583 39.109305,7.9200616 38.703626,7.5033046 38.229259,7.0249575 37.929532,6.7247857 c 0.02077,0.020752 0.04225,0.042186 0.06459,0.064596 0.08274,-0.042002 0.165217,-0.084094 0.248047,-0.1255738 0.200791,-0.1005464 0.402294,-0.2014031 0.603581,-0.3007568 l 0.0186,-0.0093 c -0.0053,-0.00536 -0.01048,-0.010835 -0.0155,-0.01602 0.225417,0.2312498 0.650894,0.6352158 1.246953,1.0547159 0.344552,0.2424927 0.646266,0.3089064 0.86713,0.3085083 0.110432,-1.991e-4 0.201011,-0.016173 0.267684,-0.03669 0.03334,-0.010259 0.05898,-0.0211 0.0801,-0.031523 0.02112,-0.010423 0.03613,-0.019197 0.04651,-0.029456 2.64e-4,-2.61e-4 0.0077,-0.013024 0.0078,-0.013436 1.04e-4,-4.117e-4 5.5e-5,-0.00926 0,-0.00982 -5.4e-5,-5.604e-4 -9e-4,-0.00381 -0.0016,-0.00568 -5.57e-4,-0.00187 -0.0014,-0.00465 -0.0021,-0.0062 -0.0027,-0.00619 -0.0054,-0.011225 -0.0098,-0.01757 -0.0087,-0.01269 -0.02047,-0.028754 -0.03721,-0.048576 -0.0333,-0.039635 -0.08441,-0.094307 -0.146244,-0.160197 C 41.044428,7.2100223 40.871484,7.0338621 40.683369,6.8436415 40.364397,6.5211001 40.001593,6.160272 39.757327,5.9186334 40.053636,5.7754501 40.350625,5.6331925 40.648229,5.4923028 l 0.0124,-0.00568 c -0.02512,-0.029409 -0.04857,-0.0575 -0.07028,-0.084233 -0.0039,-0.0048 -0.0076,-0.00976 -0.01137,-0.014469 0.203464,0.2515524 0.561616,0.6399717 1.085205,1.0102743 0.326937,0.2312219 0.611724,0.3070981 0.822173,0.3167765 0.105224,0.00484 0.192056,-0.00755 0.255798,-0.023771 0.03187,-0.00811 0.05766,-0.018076 0.07803,-0.027389 0.02036,-0.00931 0.03437,-0.01716 0.04496,-0.028939 2.15e-4,-2.385e-4 0.0056,-0.00946 0.0057,-0.00982 9.9e-5,-3.598e-4 0.0021,-0.00727 0.0021,-0.00775 V 6.616782 6.6162652 c -4.7e-4,-0.00131 -0.0018,-0.00389 -0.0021,-0.00517 v -5.168e-4 -5.167e-4 c 3.7e-5,-9.724e-4 3.99e-4,-0.00261 5.17e-4,-0.00362 v -5.168e-4 c -0.0023,-0.00547 -0.0056,-0.010704 -0.0083,-0.01602 -0.0062,-0.010888 -0.01539,-0.024868 -0.02739,-0.041341 -0.024,-0.032939 -0.0602,-0.077759 -0.10542,-0.1328084 -0.0903,-0.1100881 -0.218231,-0.258952 -0.363265,-0.4252919 -0.258566,-0.2965505 -0.571228,-0.6463863 -0.817521,-0.920874 0.263474,-0.1220932 0.528238,-0.2421714 0.792716,-0.3627685 0.147996,0.1652049 0.473237,0.4923926 0.870748,0.6723103 0.261252,0.1182488 0.490983,0.1490315 0.658358,0.1441773 0.08369,-0.00243 0.151041,-0.01435 0.201021,-0.027389 0.05866,-0.015305 0.10452,-0.031847 0.0997,-0.058394 -0.0086,-0.018958 -0.02628,-0.032821 -0.03931,-0.049097 C 44.108052,5.363312 44.072422,5.328514 44.027282,5.2871432 43.937216,5.204411 43.811107,5.0937386 43.673884,4.974505 43.441117,4.7721789 43.189644,4.558091 43.007775,4.4039972 c 0.377883,-0.1698495 0.757071,-0.3382403 1.136881,-0.5038453 0.102816,-0.04483 0.204637,-0.089211 0.306958,-0.1333252 0.07026,-0.027504 0.139633,-0.058329 0.20877,-0.088883 0.134927,-0.061658 0.164756,-0.1635671 0.10173,-0.2485689 -0.07544,-0.083458 -0.166092,-0.045545 -0.246504,-0.021184 -0.134285,0.040045 -0.344815,0.1230685 -0.496154,0.1818981 -0.356269,0.1329895 -0.712846,0.2671471 -1.067635,0.4035929 0.02628,-0.210944 0.05442,-0.4418237 0.07545,-0.6361369 0.01358,-0.1255332 0.02361,-0.2372737 0.02945,-0.3167765 0.0029,-0.039751 0.0055,-0.070604 0.0057,-0.093534 7.9e-5,-0.011465 -0.0012,-0.02005 -0.0021,-0.027389 -4.36e-4,-0.00367 -2.3e-4,-0.0083 -0.0016,-0.011886 v -0.00155 c -1.56e-4,-3.3e-4 -0.0019,-0.00388 -0.0021,-0.00413 -1.7e-4,-2.42e-4 -0.0039,-0.00346 -0.0041,-0.00362 -1.83e-4,-1.53e-4 -0.0055,-0.00406 -0.0057,-0.00413 -0.0111,-0.00356 -0.03033,-0.00548 -0.05478,-0.00568 h -0.0041 c -0.117684,7.036e-4 -0.373485,0.064183 -0.548804,0.4392496 -0.134764,0.288306 -0.176348,0.6736117 -0.188619,0.9379273 -0.01417,0.029976 -0.0037,0.089052 -0.0021,0.042891 5.12e-4,-0.01394 0.0014,-0.028162 0.0021,-0.042891 l -0.04393,0.017053 c -0.224826,0.088151 -0.450448,0.1768227 -0.674894,0.2661336 0.04062,-0.2910226 0.08495,-0.617919 0.118339,-0.8909017 0.02035,-0.1663774 0.03611,-0.3124568 0.04496,-0.4180623 0.0044,-0.052803 0.0075,-0.096512 0.0078,-0.127124 1.42e-4,-0.015306 -6.73e-4,-0.027175 -0.0021,-0.037207 -6.57e-4,-0.00502 -0.0017,-0.00834 -0.0036,-0.013436 -4.85e-4,-0.00127 -0.0013,-0.0027 -0.0021,-0.00413 l -5.16e-4,-5.168e-4 v -5.168e-4 c -3.99e-4,-0.00118 -0.0013,-0.00323 -0.0016,-0.00413 v -5.167e-4 c -2.51e-4,-3.211e-4 -0.0054,-0.00341 -0.0057,-0.00362 -2.72e-4,-2.029e-4 -0.0075,-0.00404 -0.0078,-0.00413 -0.01713,-0.00487 -0.04616,-0.00928 -0.08578,-0.0093 -0.01321,-7.4e-6 -0.02791,3.934e-4 -0.04341,0.00155 -0.06193,0.00468 -0.139801,0.020571 -0.226342,0.054777 -0.173528,0.06859 -0.37956,0.2155053 -0.538986,0.5193482 -0.22355,0.4260616 -0.274084,1.0145913 -0.28422,1.3565063 l -0.124023,0.049609 c -0.238746,0.097775 -0.477875,0.195853 -0.716236,0.2950724 0.04316,-0.3889906 0.09524,-0.8654445 0.134359,-1.2676228 0.02276,-0.2340346 0.04225,-0.4423777 0.05271,-0.5937623 0.0052,-0.075692 0.0072,-0.1378097 0.0078,-0.1813842 3.15e-4,-0.021787 0.0012,-0.039404 0,-0.05271 -5.9e-4,-0.00665 -0.0025,-0.011725 -0.0041,-0.01757 -7.99e-4,-0.00292 -0.0031,-0.00889 -0.0036,-0.00982 -2.64e-4,-4.603e-4 -0.0038,-0.00591 -0.0041,-0.0062 -2.88e-4,-2.881e-4 -0.01106,-0.00557 -0.01137,-0.00568 -0.01851,-0.00675 -0.04803,-0.012083 -0.08785,-0.011886 -0.01327,6.57e-5 -0.02776,5.789e-4 -0.04341,0.00207 -0.0626,0.00595 -0.141453,0.024217 -0.22841,0.068213 -0.173913,0.087994 -0.376731,0.2779423 -0.534851,0.6640421 -0.242291,0.5916332 -0.279795,1.4300785 -0.283187,1.8370972 l -0.03359,0.014469 c -0.223609,0.095641 -0.446955,0.1924743 -0.669726,0.289388 -0.01757,0.00764 -0.03554,0.015544 -0.05323,0.023254 0.05317,-0.5260373 0.113075,-1.1339347 0.15658,-1.6309082 0.02442,-0.2789962 0.04224,-0.5230446 0.05271,-0.6991821 0.0052,-0.088069 0.0095,-0.1583547 0.0098,-0.2087728 1.3e-4,-0.025209 -4.79e-4,-0.044919 -0.0021,-0.060461 -7.54e-4,-0.00777 -0.0017,-0.014684 -0.0036,-0.021704 -9.77e-4,-0.00351 -0.0035,-0.010812 -0.0041,-0.011886 -3.06e-4,-5.369e-4 -0.0075,-0.00741 -0.0078,-0.00775 -3.31e-4,-3.399e-4 -0.01101,-0.00761 -0.01137,-0.00775 -0.02358,-0.00933 -0.06034,-0.015735 -0.11007,-0.014986 -0.01658,2.497e-4 -0.03478,0.00109 -0.05426,0.0031 -0.07793,0.00803 -0.175321,0.032798 -0.283187,0.091984 -0.215732,0.1183726 -0.466504,0.3712858 -0.661975,0.8888347 -0.282017,0.7466985 -0.34132,1.7863074 -0.351399,2.3610962 -1.57e-4,0.00891 -3.78e-4,0.01767 -5.17e-4,0.026355 v -0.026355 h 5.17e-4 c 6.62e-4,-0.03782 0.0014,-0.077743 0.0026,-0.1193726 l -0.03049,0.013953 C 36.352144,6.7520899 36.103719,6.86391 35.85679,6.9774835 35.911546,6.409133 35.984975,5.6363559 36.041275,4.976572 c 0.03151,-0.3692973 0.05707,-0.7037931 0.07235,-0.947229 0.0076,-0.121718 0.01213,-0.2208829 0.01344,-0.2909383 6.57e-4,-0.035028 0.0013,-0.061499 0,-0.082165 -6.67e-4,-0.010333 -0.0023,-0.019203 -0.0041,-0.027388 -8.8e-4,-0.00409 -0.0012,-0.00818 -0.0036,-0.013436 -0.0012,-0.00263 -0.0058,-0.00936 -0.0062,-0.00982 -3.75e-4,-4.574e-4 -0.01303,-0.00964 -0.01344,-0.00982 -0.02432,-0.010299 -0.0615,-0.017239 -0.111621,-0.01602 -0.01671,4.064e-4 -0.03466,0.00183 -0.05426,0.00413 -0.0784,0.00922 -0.177172,0.036877 -0.285254,0.1018026 -0.216219,0.1298576 -0.46617,0.40517 -0.662031,0.9668725 C 34.638063,5.652006 34.626236,7.1355804 34.630508,7.5567763 34.371787,7.68167 34.114237,7.8089344 33.856912,7.9371148 33.830541,7.2025189 33.79358,6.2198085 33.755626,5.3925673 c -0.02058,-0.4486407 -0.04112,-0.8524893 -0.06046,-1.144633 -0.0097,-0.1460719 -0.01857,-0.2644213 -0.02739,-0.3477824 -0.0044,-0.041681 -0.0091,-0.073484 -0.01344,-0.097668 -0.0022,-0.012092 -0.0049,-0.021837 -0.0078,-0.031006 -0.0015,-0.00458 -0.003,-0.00986 -0.0062,-0.015503 -0.0016,-0.00282 -0.0052,-0.00931 -0.0057,-0.00982 -2.34e-4,-2.524e-4 -0.0076,-0.00551 -0.0078,-0.00568 -2.32e-4,-1.675e-4 -0.01166,-0.00612 -0.01189,-0.0062 -0.02285,-0.00813 -0.06362,-0.01785 -0.116788,-0.018603 -0.08861,-0.00126 -0.211418,0.022802 -0.342098,0.1240234 -0.209088,0.1619536 -0.431447,0.51561 -0.569991,1.2619385 -0.227511,1.2255918 -0.08238,2.9414248 -0.0098,3.6256185 l -0.0041,-0.032039 h 5.17e-4 c -0.0032,-0.030611 -0.0064,-0.062969 -0.0098,-0.097152 l -0.01395,0.00723 c -0.03312,0.017457 -0.06479,0.033751 -0.09767,0.05116 -0.178284,0.094182 -0.35709,0.1891613 -0.535368,0.2852539 C 31.760113,8.0160796 31.554954,6.8098501 31.37696,5.8106296 31.28228,5.2791172 31.196555,4.8063929 31.128913,4.4649753 31.095093,4.2942666 31.06604,4.1552273 31.04313,4.0587986 31.03168,4.0105846 31.02028,3.9726606 31.01161,3.9451104 c -0.0043,-0.013775 -0.0072,-0.024944 -0.01189,-0.03514 -0.0024,-0.0051 -0.0053,-0.00935 -0.0098,-0.015503 -0.0022,-0.00308 -0.0087,-0.00931 -0.0093,-0.00982 -2.99e-4,-2.54e-4 -0.0095,-0.00552 -0.0098,-0.00568 -2.84e-4,-1.547e-4 -0.01368,-0.00562 -0.01395,-0.00568 -0.01241,-0.00252 -0.02611,-0.00429 -0.04134,-0.00413 -0.0457,4.672e-4 -0.103973,0.014391 -0.175184,0.047026 -0.09495,0.043511 -0.207509,0.122377 -0.316259,0.2614828 -0.217499,0.2782115 -0.418419,0.7895399 -0.445451,1.7187581 -0.03657,1.2569698 0.273496,2.8716028 0.497127,3.8571289 4.6e-4,-2.738e-4 0.0011,-7.597e-4 0.0016,-0.00103 0.0081,0.035554 0.01598,0.070516 0.02377,0.1043864 0.002,0.00898 0.0047,0.025189 0.0067,0.034623 -0.0103,-0.044364 -0.02129,-0.090595 -0.03204,-0.1379761 -0.238235,0.1417635 -0.474356,0.2881775 -0.709001,0.4382165 0.01269,0.04869 0.02504,0.09675 0.03721,0.14366 C 29.535018,9.3028785 29.145929,7.8204784 28.812259,6.5857761 28.644276,5.9641756 28.489834,5.4069804 28.373009,5.0039605 28.314596,4.8024506 28.26571,4.6391465 28.228315,4.5254368 c -0.0187,-0.056855 -0.03351,-0.1007676 -0.04651,-0.1328085 -0.0065,-0.01602 -0.01334,-0.029469 -0.01964,-0.040824 -0.0032,-0.00568 -0.0065,-0.011054 -0.01188,-0.01757 -0.0027,-0.00326 -0.01063,-0.00927 -0.01137,-0.00982 -3.71e-4,-2.749e-4 -0.0094,-0.00812 -0.0098,-0.00827 -3.41e-4,-1.562e-4 -0.01726,-0.00358 -0.01757,-0.00362 -0.0083,-9.775e-4 -0.01651,-0.00143 -0.0248,-0.00103 -0.02489,0.0012 -0.0506,0.0087 -0.07907,0.020671 -0.03795,0.015959 -0.08043,0.041289 -0.126608,0.078031 -0.09235,0.073485 -0.197154,0.1928467 -0.293005,0.3767212 -0.191703,0.3677489 -0.346898,0.9908521 -0.290938,2.0215821 0.0808,1.488056 0.637247,3.3902854 0.974101,4.4291874 h 5.16e-4 v -5.17e-4 -5.17e-4 h 5.17e-4 c 0.01072,0.03302 0.02127,0.06541 0.03152,0.09663 0.0027,0.0082 0.0068,0.02419 0.0098,0.03411 -0.01369,-0.04163 -0.02779,-0.08473 -0.04237,-0.129707 -0.139472,0.107865 -0.277235,0.217937 -0.413929,0.330729 -0.133708,0.110285 -0.266825,0.221744 -0.399975,0.333313 0.0039,0.01071 0.0075,0.02143 0.01137,0.03204 C 27.046137,10.784018 26.400367,9.0314333 25.83983,7.5428237 25.548051,6.7679519 25.277642,6.0651263 25.076053,5.5548313 24.975258,5.2996838 24.892274,5.0931656 24.830073,4.9491835 c -0.0311,-0.071991 -0.05579,-0.1280746 -0.07596,-0.1679484 -0.01008,-0.019937 -0.01868,-0.035231 -0.02739,-0.048576 -0.0044,-0.00667 -0.0092,-0.012413 -0.01602,-0.019637 -0.0034,-0.00361 -0.01455,-0.01333 -0.0155,-0.013953 -4.74e-4,-3.114e-4 -0.013,-0.00552 -0.01344,-0.00568 -4.21e-4,-1.587e-4 -0.02135,-0.00567 -0.02171,-0.00568 -0.06687,-9.067e-4 -0.150829,0.031592 -0.253731,0.1152384 -0.102902,0.083646 -0.216572,0.2203183 -0.308508,0.4351156 -0.183872,0.4295948 -0.284175,1.1690558 -0.05891,2.4262085 0.348449,1.9446463 1.371891,4.4039674 1.882055,5.5557334 3.59e-4,-3.18e-4 6.75e-4,-7.16e-4 0.001,-0.001 0.01274,0.02873 0.02514,0.05668 0.03721,0.08372 0.0038,0.0084 0.01141,0.02777 0.01602,0.03876 -0.01732,-0.03875 -0.03549,-0.07905 -0.05426,-0.121439 -0.187701,0.166134 -0.373907,0.334251 -0.559655,0.502811 0.02671,0.05411 0.0528,0.107006 0.07803,0.15813 -0.01017,-0.02061 -0.03253,-0.06478 -0.04289,-0.08578 -0.01166,-0.02362 -0.02371,-0.04763 -0.03566,-0.07183 l 5.17e-4,-5.17e-4 C 24.754316,12.493233 23.775059,10.514392 22.920112,8.8145807 22.473807,7.9272351 22.061359,7.1165423 21.753775,6.5273818 21.599984,6.2328016 21.472137,5.9920798 21.379121,5.8261326 21.332613,5.743159 21.294401,5.6803112 21.265433,5.6349298 c -0.01448,-0.022691 -0.02709,-0.040143 -0.03876,-0.054777 -0.0058,-0.00732 -0.01111,-0.014174 -0.01964,-0.021704 -0.0043,-0.00377 -0.0089,-0.00879 -0.01757,-0.013436 -0.0044,-0.00232 -0.01707,-0.00606 -0.01757,-0.0062 -5.01e-4,-1.346e-4 -0.02698,-0.0016 -0.02739,-0.00155 -0.07627,0.00824 -0.163932,0.05724 -0.265617,0.1679484 -0.101685,0.1107086 -0.206704,0.2844498 -0.277503,0.5446696 -0.141596,0.5204396 -0.148485,1.3842586 0.277503,2.8065471 0.660485,2.2052181 2.142129,4.9201131 2.865458,6.1789511 3.52e-4,-3.41e-4 6.81e-4,-6.91e-4 10e-4,-10e-4 0.01367,0.02376 0.02721,0.04707 0.04031,0.06976 0.0051,0.0088 0.01518,0.02784 0.02222,0.04082 -0.02036,-0.03521 -0.04178,-0.07165 -0.06356,-0.109554 -0.157315,0.152606 -0.313582,0.306516 -0.469222,0.460954 C 22.51574,14.511958 21.144464,12.37631 19.918228,10.494065 19.282812,9.5187146 18.688054,8.6162888 18.245979,7.9588189 18.024941,7.6300839 17.843592,7.3628046 17.711128,7.1774713 17.644898,7.0848043 17.591117,7.0131506 17.550931,6.9630141 c -0.02009,-0.025068 -0.03739,-0.04489 -0.05271,-0.060461 -0.0077,-0.00779 -0.01492,-0.014222 -0.02532,-0.021704 -0.0052,-0.00374 -0.01149,-0.00766 -0.0217,-0.011886 -0.0051,-0.00212 -0.01904,-0.00558 -0.01964,-0.00568 -5.99e-4,-9.8e-5 -0.03054,-1.054e-4 -0.03101,0 -0.0832,0.018567 -0.174867,0.083715 -0.273368,0.2185913 -0.0985,0.1348762 -0.192918,0.340529 -0.238745,0.6366536 -0.09165,0.5922493 0.0093,1.5473886 0.65629,3.06493 1.050441,2.464107 3.164158,5.432436 4.058667,6.639387 -0.144475,0.156048 -0.2883,0.313415 -0.430981,0.47129 0.01231,0.01734 0.02416,0.03475 0.03617,0.05168 l 5.16e-4,-5.16e-4 0.01602,0.02326 c -0.0054,-0.0076 -0.01105,-0.015 -0.01654,-0.02274 -0.012,-0.0169 -0.02439,-0.03384 -0.03669,-0.05116 l 5.17e-4,-5.17e-4 C 20.287359,16.6474 18.631583,14.320102 17.15819,12.275351 16.392286,11.21244 15.676803,10.225018 15.142809,9.5060113 14.875812,9.1465079 14.65379,8.8548637 14.49427,8.6523167 14.414509,8.5510431 14.350561,8.4727708 14.30255,8.4182224 c -0.024,-0.027274 -0.04452,-0.049944 -0.06253,-0.066663 -0.009,-0.00836 -0.01698,-0.015432 -0.02894,-0.023254 -0.006,-0.00391 -0.0122,-0.00768 -0.02377,-0.011886 -0.0058,-0.00211 -0.02257,-0.0056 -0.02326,-0.00568 -6.79e-4,-8.05e-5 -0.03461,0.00347 -0.03514,0.00362 -0.09139,0.024965 -0.188693,0.1009351 -0.290938,0.2557983 -0.102245,0.1548632 -0.197206,0.3877456 -0.232544,0.7188192 -0.07068,0.6621472 0.09141,1.7188771 0.888835,3.3693041 1.344619,2.782947 3.992207,6.108667 4.969205,7.296195 -0.0086,-0.01038 -0.01759,-0.02084 -0.02635,-0.03152 -0.127629,0.157618 -0.254133,0.316044 -0.379821,0.475423 0.01228,0.01447 0.02421,0.02931 0.03617,0.04341 l 5.17e-4,-5.17e-4 0.06976,0.08268 c -0.02273,-0.02675 -0.04626,-0.05387 -0.07028,-0.08216 -0.01197,-0.0141 -0.02441,-0.02842 -0.03669,-0.04289 l 5.17e-4,-5.16e-4 c -0.979369,-1.153797 -2.957954,-3.480373 -4.737179,-5.546949 -0.924598,-1.073923 -1.794569,-2.076297 -2.443262,-2.808614 -0.324346,-0.366159 -0.594011,-0.664652 -0.787032,-0.870748 -0.09651,-0.103048 -0.173125,-0.183214 -0.230477,-0.238228 -0.02868,-0.02751 -0.0535,-0.04819 -0.07441,-0.06459 -0.01046,-0.0082 -0.0177,-0.016 -0.03101,-0.02326 -0.0067,-0.0036 -0.01484,-0.0063 -0.02739,-0.0098 -0.0063,-0.0017 -0.02458,-0.0041 -0.02532,-0.0041 -7.38e-4,-2.8e-5 -0.03666,0.0055 -0.03721,0.0057 -0.09355,0.03451 -0.187966,0.123341 -0.28112,0.295072 -0.09316,0.17173 -0.170823,0.425236 -0.177767,0.775664 -0.01389,0.700857 0.251458,1.792885 1.238167,3.450952 1.706678,2.867901 4.902174,6.209806 5.95881,7.283276 -0.208592,0.302889 -0.41475,0.609879 -0.615467,0.918807 C 15.828532,22.599132 13.5123,20.276997 11.377147,18.160263 10.260446,17.053196 9.1942454,16.002101 8.3964507,15.232277 7.9975533,14.847365 7.6649496,14.531718 7.4275176,14.314503 7.3088016,14.205896 7.2140432,14.121869 7.1443307,14.064389 c -0.034856,-0.02874 -0.063321,-0.04958 -0.08785,-0.06615 -0.012264,-0.0083 -0.022464,-0.01492 -0.037207,-0.0217 -0.00737,-0.0034 -0.015403,-0.0069 -0.028939,-0.0098 -0.00677,-0.0014 -0.024501,-0.0036 -0.025321,-0.0036 -8.213e-4,2.3e-5 -0.040758,0.0095 -0.041341,0.0098 -0.095265,0.04403 -0.1879244,0.145858 -0.2713013,0.33383 -0.083377,0.187971 -0.142961,0.459596 -0.1209229,0.827856 0.044076,0.736519 0.4134198,1.860359 1.5875,3.517615 2.2635085,3.195022 6.5205715,6.858446 7.1732055,7.412468 -0.185205,0.340004 -0.364756,0.683745 -0.539502,1.030428 C 13.875411,26.412756 11.124409,24.275788 8.5039377,22.263889 7.121675,21.20264 5.7771504,20.177043 4.7692819,19.423752 4.2653477,19.047107 3.8465414,18.738093 3.5466175,18.525616 3.3966555,18.419377 3.2764286,18.338585 3.1895334,18.283253 c -0.043448,-0.02767 -0.078065,-0.04946 -0.107487,-0.06459 -0.014711,-0.0076 -0.026333,-0.01419 -0.042891,-0.01964 -0.00828,-0.0027 -0.018462,-0.0043 -0.033073,-0.0057 -0.00731,-6.91e-4 -0.026482,-1.29e-4 -0.027389,0 -9.067e-4,1.3e-4 -0.042292,0.01512 -0.042891,0.0155 -0.093596,0.05866 -0.1766884,0.177615 -0.2387451,0.38499 -0.062057,0.207375 -0.089588,0.498977 -0.01757,0.880566 0.1440362,0.763178 0.6803363,1.887196 2.1270019,3.461288 3.0259105,3.292445 8.5762198,6.847644 8.5762208,6.847644 l 0.119889,0.08216 c -0.0725,0.182949 -0.143583,0.366161 -0.213424,0.550354 0.01177,0.0066 0.0236,0.01316 0.03514,0.01964 0.03768,0.02115 0.07389,0.04176 0.109038,0.06149 C 12.074752,29.734214 8.7934073,27.894188 5.8338164,26.259511 4.3533273,25.441789 2.9551326,24.676335 1.9162261,24.12114 1.3967729,23.843542 0.96687239,23.619296 0.66203905,23.466916 0.50962239,23.390726 0.38865467,23.331038 0.30082079,23.292767 c -0.0439169,-0.01914 -0.0793465,-0.0331 -0.10955404,-0.04289 -0.0151038,-0.0049 -0.0288977,-0.0087 -0.0465088,-0.01137 -0.004403,-6.5e-4 -0.009169,-10e-4 -0.0144694,-10e-4 -0.0053,1.2e-5 -0.0115209,4.66e-4 -0.0191203,10e-4 -0.007599,6.03e-4 -0.0265488,0.0033 -0.0273885,0.0036 -8.3969e-4,2.72e-4 -0.04029742,0.0228 -0.04082439,0.02325 -0.08827512,0.07573 -0.15549035,0.212112 -0.18758544,0.4377 -0.0320951,0.225588 -0.0132998,0.533884 0.12143961,0.91984 0.26947898,0.771912 1.00320495,1.859463 2.75538737,3.271635 3.0728818,2.476594 8.0171151,4.864246 9.5374021,5.573303 v -5.17e-4 c 8.9e-5,-2.12e-4 9.39e-4,-0.0013 0.001,-0.0016 v -5.17e-4 c 0.01242,0.0058 0.02477,0.01155 0.03669,0.01705 0.01272,0.0059 0.05684,0.02902 0.07752,0.03927 -0.03581,-0.01662 -0.07442,-0.0347 -0.115239,-0.05374 -0.15079,0.51984 -0.291258,1.042843 -0.421679,1.56838 0.03587,0.01688 0.0687,0.0323 0.102319,0.04806 -0.02773,-0.01289 -0.05944,-0.02749 -0.07131,-0.03307 -0.01024,-0.0048 -0.02057,-0.0096 -0.03101,-0.01447 v -5.17e-4 C 10.350173,34.331573 6.8816854,32.702983 3.7207671,31.242152 2.0812487,30.484443 0.52477739,29.772809 -0.63090528,29.257777 -1.2087466,29.000262 -1.6863622,28.792296 -2.0251354,28.652129 -2.194522,28.582049 -2.3285281,28.528375 -2.4256278,28.494 c -0.04855,-0.01719 -0.088498,-0.02902 -0.1214396,-0.03721 -0.016471,-0.0041 -0.029802,-0.0083 -0.048576,-0.0098 v 5.17e-4 c -0.00469,-3.79e-4 -0.00991,-8.11e-4 -0.01602,-5.17e-4 -0.00611,2.95e-4 -0.013231,8.34e-4 -0.021187,0.0021 -0.00796,0.0012 -0.02858,0.008 -0.029456,0.0083 -8.755e-4,3.5e-4 -0.038231,0.0248 -0.038757,0.02532 -0.08693,0.08615 -0.147656,0.235154 -0.164331,0.474389 -0.016675,0.239236 0.024733,0.559998 0.1953369,0.954981 0.3412066,0.789967 1.1945198,1.876448 3.14089355,3.226676 C 4.0895067,35.649085 9.909137,37.8967 11.16114,38.366861 c 1.69e-4,-10e-4 3.47e-4,-0.0021 5.17e-4,-0.0031 0.0112,0.0042 0.02182,0.0081 0.03204,0.01189 0.009,0.0033 0.05701,0.02394 0.07803,0.03256 -0.03156,-0.01172 -0.0683,-0.02546 -0.110587,-0.04134 -0.08807,0.530946 -0.165686,1.062703 -0.234611,1.596802 C 8.9726552,39.247798 5.1749244,37.859691 1.8025377,36.650697 0.06915,36.02928 -1.5488814,35.456255 -2.7424045,35.047177 -3.339166,34.842638 -3.8292606,34.680486 -4.1759087,34.572271 c -0.1733241,-0.05411 -0.3109092,-0.09576 -0.4097941,-0.120923 -0.049442,-0.01258 -0.087696,-0.02021 -0.1214397,-0.02532 -0.016872,-0.0026 -0.033137,-0.0044 -0.05271,-0.0041 -0.00979,1.65e-4 -0.020757,6e-6 -0.037207,0.0041 -0.00823,0.0021 -0.028107,0.01093 -0.028939,0.01137 -8.315e-4,4.37e-4 -0.0388,0.03095 -0.039274,0.03152 -0.052601,0.06376 -0.067346,0.133075 -0.078031,0.22841 -0.010686,0.09533 -0.00954,0.214673 0.011886,0.355533 0.042853,0.281721 0.1639933,0.652903 0.4273641,1.089856 0.5267414,0.873906 1.6212787,2.010539 3.80286867,3.220476 3.78750923,2.100643 9.56247133,3.755833 11.41635673,4.259688 -0.02784,-0.0076 -0.05672,-0.01517 -0.0863,-0.02325 -0.0092,-0.0025 -0.01849,-0.0052 -0.02791,-0.0078 -0.01957,0.388605 -0.03383,0.777793 -0.04393,1.166854 0.05034,0.01303 0.0985,0.02585 0.146245,0.03824 -0.04134,-0.01052 -0.102369,-0.02612 -0.127123,-0.03256 -0.0064,-0.0017 -0.01272,-0.0035 -0.01912,-0.0052 V 44.75864 C 8.5478441,44.238577 4.4993106,43.195081 0.894583,42.289023 -0.96249007,41.822244 -2.7009091,41.39135 -3.984189,41.088063 -4.6258289,40.936419 -5.15274,40.81741 -5.5251802,40.740281 c -0.1862201,-0.03856 -0.3338924,-0.06819 -0.4397664,-0.08423 -0.052937,-0.008 -0.094872,-0.01162 -0.1307414,-0.01344 -0.00897,-4.56e-4 -0.01748,-8.81e-4 -0.026355,-0.001 -0.00444,-9.3e-5 -0.00923,-1.32e-4 -0.013953,0 -0.00472,1.31e-4 -0.00936,4.66e-4 -0.014469,0.001 -0.01022,0.0012 -0.022106,0.0038 -0.038757,0.0098 -0.00833,0.003 -0.02862,0.0129 -0.029456,0.01344 -8.364e-4,5.45e-4 -0.036758,0.03656 -0.037207,0.03721 -0.077008,0.111673 -0.1131198,0.286923 -0.082166,0.550871 0.030954,0.263949 0.1434777,0.604801 0.4103109,0.999939 0.5336664,0.790276 1.6855955,1.796 4.0819214,2.867009 4.2402493,1.895131 10.6020594,3.121729 12.4653887,3.456119 -0.0059,-9.86e-4 -0.01165,-0.002 -0.01757,-0.0031 0.01856,0.404376 0.04184,0.809074 0.0708,1.214396 0.06291,0.01019 0.124392,0.02023 0.184484,0.02997 -0.03297,-0.0053 -0.06695,-0.01054 -0.100768,-0.01602 -0.02563,-0.004 -0.05403,-0.0084 -0.06925,-0.01085 -0.0048,-8e-4 -0.0097,-0.0013 -0.01447,-0.0021 -2.1e-5,-2.96e-4 2.2e-5,-7.39e-4 0,-0.001 C 8.3799967,49.416875 4.2467654,48.752499 0.63465054,48.195123 -1.2209645,47.908788 -2.9375379,47.650029 -4.1991629,47.474753 c -0.6308126,-0.08764 -1.1475348,-0.153633 -1.5115357,-0.19327 -0.1820005,-0.01982 -0.3264537,-0.03394 -0.4299479,-0.03927 -0.051747,-0.0027 -0.092968,-0.0019 -0.1286743,0 -0.017853,9.52e-4 -0.033917,7.7e-4 -0.054777,0.0057 -0.01043,0.0024 -0.02274,0.0058 -0.039274,0.01395 -0.00827,0.0041 -0.01647,0.01067 -0.027388,0.01964 -0.01092,0.009 -0.034746,0.03806 -0.03514,0.03876 -0.1041432,0.185414 -0.2809726,0.773774 0.2284098,1.537374 0.5093823,0.7636 1.6908174,1.684813 4.3067139,2.57607 4.3772602,1.49137 10.6855184,2.171524 13.0364141,2.385384 -2.03e-4,-0.0012 -3.14e-4,-0.0024 -5.17e-4,-0.0036 0.0056,6e-4 0.01104,0.0011 0.01654,0.0016 0.01859,0.0017 0.07002,0.009 0.0956,0.01188 0.0027,2.41e-4 0.0056,7.94e-4 0.0083,10e-4 -0.0387,-0.0035 -0.07873,-0.0071 -0.119889,-0.01085 0.09827,0.593275 0.210201,1.185664 0.33538,1.775602 0.06004,0.0071 0.119239,0.01423 0.178284,0.02119 -0.05402,-0.0062 -0.123328,-0.01399 -0.171049,-0.01964 -0.0024,-2.56e-4 -0.0048,-7.44e-4 -0.0072,-10e-4 v -5.17e-4 C 8.5673754,55.250238 4.54203,54.780406 1.2051584,54.413865 -0.50312999,54.226217 -2.031133,54.065901 -3.1387625,53.962729 c -0.5538147,-0.05159 -1.0010668,-0.08841 -1.3161988,-0.107487 -0.157566,-0.0095 -0.2808016,-0.01565 -0.3710368,-0.0155 -0.045117,7.6e-5 -0.082309,0.0024 -0.1152384,0.0062 -0.016464,0.0019 -0.031949,0.0034 -0.05271,0.0098 -0.010381,0.0032 -0.020945,0.0079 -0.037207,0.01757 -0.00813,0.0048 -0.028794,0.0185 -0.029456,0.01912 -6.614e-4,6.25e-4 -0.029117,0.04067 -0.029456,0.04134 -0.067969,0.134048 -0.08091,0.331763 -0.00775,0.617017 0.073155,0.285254 0.2462603,0.642858 0.5978963,1.037146 0.7032721,0.788575 2.1158513,1.724932 4.90616051,2.545064 3.90335799,1.147285 9.19941629,1.636291 12.28400469,1.837098 -3.64e-4,-0.0011 -6.69e-4,-0.002 -10e-4,-0.0031 0.0029,1.87e-4 0.0059,3.31e-4 0.0088,5.17e-4 0.02395,0.0015 0.06603,0.0069 0.09147,0.0088 h 5.17e-4 5.17e-4 5.16e-4 l 5.17e-4,5.16e-4 -0.01137,-10e-4 c -0.02971,-0.0019 -0.05978,-0.0037 -0.08992,-0.0057 0.204538,0.590817 0.426158,1.177322 0.664559,1.758032 0.02617,0.0031 0.052,0.0062 0.07803,0.0093 l -0.07803,-0.0088 v -5.17e-4 C 10.236793,61.361089 6.2896239,60.90371 3.0799793,60.554575 1.4603613,60.378399 0.04552457,60.232258 -0.99884148,60.136513 c -2.6045e-4,-2.5e-5 -7.7312e-4,2.4e-5 -0.001034,0 -0.54352532,-0.0518 -0.98282312,-0.08879 -1.29294432,-0.106971 -0.1550605,-0.0091 -0.2773724,-0.01291 -0.3674195,-0.01188 -0.045023,5.09e-4 -0.080949,8.68e-4 -0.1152384,0.0057 -0.017145,0.0024 -0.034169,0.0042 -0.056327,0.01189 -0.011079,0.0038 -0.024824,0.0089 -0.041341,0.01964 -0.00826,0.0054 -0.017572,0.01335 -0.027389,0.02325 -0.00982,0.0099 -0.027013,0.03853 -0.027388,0.03927 -0.071537,0.141086 -0.084761,0.347802 -0.00775,0.648023 0.077005,0.300221 0.2587613,0.676953 0.6289022,1.091923 0.7402817,0.829941 2.2268623,1.814578 5.1640259,2.677873 0.577025,0.1696 1.1647192,0.324025 1.7575155,0.464571 3.5980405,0.853058 7.3756061,1.197915 9.9797531,1.363741 0.423725,0.02698 0.816232,0.0493 1.172021,0.06821 l 0.0021,-0.02842 -10e-4,0.02842 0.02377,0.0026 0.03307,0.001 c 0.04366,0.0023 0.08919,0.0046 0.136426,0.0072 2.357423,3.247455 5.848348,6.086331 9.220626,7.901326 2.334111,1.256243 4.731687,2.251388 7.101892,3.179134 1.073077,0.420024 2.140665,0.826379 3.19412,1.236617 0.30307,0.118023 0.604822,0.23641 0.905371,0.355534 2.701038,1.070567 5.169839,2.84976 7.298779,4.998145 1.569109,1.583441 2.859558,3.312025 3.628719,5.140771 v 0.791166 0.255282 c -0.208952,-0.02855 -0.416196,-0.06072 -0.621667,-0.09663 -0.05284,-0.0092 -0.105531,-0.01871 -0.15813,-0.02842 -5.779492,-1.067485 -10.11379,-5.030533 -10.933699,-10.295496 -0.03345,-0.01313 -0.06779,-0.02615 -0.101286,-0.03927 -1.011507,-0.396333 -2.041645,-0.78919 -3.08405,-1.194242 -0.03922,-0.01524 -0.07856,-0.0302 -0.117822,-0.04548 0.02363,0.52829 0.07473,1.054868 0.153996,1.577681 0.651254,5.096136 4.269276,9.520211 8.895581,11.617379 1.862309,0.870643 3.900436,1.426902 5.967077,1.615922 v 6.51123 h 5.122685 z M 20.486154,21.382806 c -0.42936,0.605497 -0.841591,1.21989 -1.2361,1.843815 0.0096,-0.01517 0.01932,-0.03031 0.02894,-0.04548 0.365065,-0.575672 0.745189,-1.143311 1.139982,-1.703256 0.02235,-0.0317 0.04474,-0.06344 0.06718,-0.09508 z M 13.87002,43.021278 c -0.007,9.64e-4 -0.01374,0.0022 -0.02067,0.0031 v 0.001 l -0.077,0.0093 c -0.0071,9.27e-4 -0.01459,0.0017 -0.0217,0.0026 0.03947,-0.0052 0.07925,-0.01069 0.119372,-0.01602 z m 3.223059,16.319937 0.0067,0.0031 c -0.10801,0.04226 -0.214498,0.08419 -0.318326,0.12454 0.03318,-0.0129 0.0987,-0.04428 0.132291,-0.05736 0.05921,-0.02306 0.118827,-0.04664 0.179317,-0.07028 z m 4.456576,7.377328 1.418518,0.02997 13.556279,0.288871 c -1.464217,1.56221 -2.58402,3.444981 -3.305225,5.473051 0.03013,0.01204 0.06182,0.02363 0.09198,0.03566 0.903795,0.360444 1.821908,0.716408 2.752804,1.076937 0.03284,0.01272 0.06583,0.02551 0.0987,0.03824 0.921125,-2.703673 2.72462,-4.989548 5.299934,-6.518981 l 5.847705,0.12454 v 13.403316 1.452108 C 47.051538,81.839439 46.788467,81.564553 46.523318,81.296982 44.085641,78.837039 41.188047,76.716768 37.857181,75.396567 37.194649,75.13397 36.534147,74.877468 35.87694,74.622971 34.878565,74.23636 33.888208,73.854512 32.912263,73.464902 30.88794,72.656766 28.924925,71.81414 27.077994,70.820102 25.021244,69.713138 23.138356,68.335129 21.549649,66.718544 Z"
       style="fill:#000000;fill-opacity:1;stroke:#000000;stroke-width:0.3"
       id="path2131"
       sodipodi:nodetypes="cccsccsssscccsccsssscccccssscsscsscssssccssssscsccsssscccccccccsccsssssssscccssccccsssscsscsssccsccccccccccssssccccccssccssssssscscccscccccccssssscscccsssscccccccccsssssccccsscssccccccccsssssccccsccsscccccccccccccccsssssccccsscscccccccccccccsssccssssccssssccssssccccscssssccssssccsccccccccccsssssccccssscccccscsscccccsscccccccccccsscssssccscccccccccccscssscsssccsscccccssssscscccccsccscccssssssscccccscccscssssssscccccccsscsccssscscccscccccscsccccccscccscccccscscccccccscscsscccsccsscscscssccscsccccsccscsssccccccscsccsccsccsccsccccscccssscccccccssscccssccssscccccccsssscssccssssccccccscccccsssscssscssscccccccsccsssscccscsssccccccsssscscscsscccccccccssssscsscsssccccccsccssssscccccssccsssscccccsssccsssscccscssscccscssssscccccsssccccccccccccsssssccscccsssccccccsssscccscssscccccccccssscscscsscsssccccccccssscsccccssccsccccccccsscssscscsssccccccccccccccsscsscccscsssssccccccssssscccccccsccccccsscssscccccccscccssscccccscccccssssss" />
    <path
       d="m 15.462169,65.320692 c 0.07857,0.13541 0.160595,0.269589 0.241329,0.40411 -0.08046,-0.134647 -0.161777,-0.268973 -0.239778,-0.404626 z"
       style="baseline-shift:baseline;display:inline;overflow:visible;vector-effect:none;enable-background:accumulate;stop-color:#000000;stop-opacity:1"
       id="path2130"
       sodipodi:nodetypes="cccc" />
    <path
       d="m 53.421285,-3.3502945 0.01169,103.2735235 h 5.002796 v -6.211507 c 3.79169,-0.479746 8.61154,-1.294843 9.765295,-2.432926 1.659005,-1.636473 -4.263875,-18.752342 -6.166032,-24.090519 v -5.17e-4 l 13.256039,-0.71675 h 0.0031 c 7.831835,-0.17848 16.600499,-0.342367 27.644304,-0.259933 V 63.439153 C 84.674343,63.558526 72.446983,62.545584 60.506448,62.199436 60.111739,58.978774 59.06398,53.520821 59.187149,48.963551 c 0.103979,-4.731014 1.18339,-12.921175 1.18339,-12.921175 0,0 -3.199694,-15.939146 -3.582727,-27.4009114 1.698219,-1.2323965 2.703291,-3.2037295 2.703194,-5.3020019 -9.7e-5,-3.42665455 -2.652769,-6.4320732 -6.069721,-6.6897572 z"
       style="stroke-width:2.89999"
       id="path2132"
       sodipodi:nodetypes="ccccscccccccccccc" />
  </g>
</svg>
